<svg class="noose_parent__3UpaV " x="0px" y="0px" viewBox="0 0 236 330"><line class="noose_on__3Tbdc" x1="0" y1="330" x2="236" y2="330"></line><line class="noose_on__3Tbdc" x1="59" y1="0" x2="59" y2="330"></line><line class="noose_on__3Tbdc" x1="139.4" y1="53.5" x2="139.4" y2="0"></line><line class="noose_on__3Tbdc" x1="58" y1="2.5" x2="139.4" y2="2.5"></line><line class="noose_dim__2tELn" x1="139.4" y1="133.9" x2="121.6" y2="212.4"></line><line class="noose_dim__2tELn" x1="139.4" y1="134.3" x2="154.2" y2="210.8"></line><line class="noose_dim__2tELn" x1="139.4" y1="218.7" x2="167.5" y2="291.4"></line><line class="noose_dim__2tELn" x1="139.4" y1="218.7" x2="114.2" y2="299.3"></line><line class="noose_dim__2tELn" x1="139.4" y1="124.7" x2="139.4" y2="218.7"></line><circle class="noose_dim__2tELn" cx="139.4" cy="89.1" r="35.6"></circle><line class="undefined noose_face__340qe" x1="122.9" y1="83.4" x2="131.1" y2="91.6"></line><line class="undefined noose_face__340qe" x1="122.6" y1="91.9" x2="131.6" y2="82.9"></line><line class="undefined noose_face__340qe" x1="147" y1="83.5" x2="155.3" y2="91.8"></line><line class="undefined noose_face__340qe" x1="146.8" y1="92" x2="155.8" y2="83"></line><path class="undefined noose_face__340qe" d="M126.4,106.5c0-1.8,5.6-3.2,12.4-3.2"></path><path class="undefined noose_face__340qe" d="M150.9,106.5c0-1.8-5.6-3.2-12.4-3.2"></path><circle class="" cx="167" cy="119.9" r="35.6"></circle><line class="" x1="167" y1="169" x2="231.8" y2="96.7"></line><line class="" x1="167" y1="155.5" x2="167" y2="249.4"></line><line class="" x1="167" y1="249.4" x2="180.4" y2="330.5"></line><line class="" x1="167" y1="249.4" x2="142.4" y2="330.5"></line><line class="" x1="167" y1="169" x2="92.8" y2="106.4"></line><path class="" d="M151.8,133.7c0,4.2,6.9,7.7,15.4,7.7"></path><path class="" d="M182.2,133.7c0,4.2-6.9,7.7-15.4,7.7"></path><line class="" x1="151" y1="118.1" x2="161.1" y2="118.1"></line><line class="" x1="173.1" y1="118.1" x2="183.2" y2="118.1"></line></svg>